<svg width="26" height="25" viewBox="0 0 26 25" fill="none" xmlns="http://www.w3.org/2000/svg">
<path fill-rule="evenodd" clip-rule="evenodd" d="M7.27824 22.2754C7.80574 22.2754 8.23449 22.7041 8.23449 23.2316C8.23449 23.7591 7.80574 24.1866 7.27824 24.1866C6.75074 24.1866 6.32324 23.7591 6.32324 23.2316C6.32324 22.7041 6.75074 22.2754 7.27824 22.2754Z" stroke="white" stroke-width="1.5" stroke-linecap="round" stroke-linejoin="round"/>
<path fill-rule="evenodd" clip-rule="evenodd" d="M21.3439 22.2754C21.8714 22.2754 22.3002 22.7041 22.3002 23.2316C22.3002 23.7591 21.8714 24.1866 21.3439 24.1866C20.8164 24.1866 20.3877 23.7591 20.3877 23.2316C20.3877 22.7041 20.8164 22.2754 21.3439 22.2754Z" stroke="white" stroke-width="1.5" stroke-linecap="round" stroke-linejoin="round"/>
<path d="M1.4375 1.5625L4.0375 2.0125L5.24125 16.3538C5.33875 17.5225 6.315 18.42 7.4875 18.42H21.1275C22.2475 18.42 23.1975 17.5975 23.3588 16.4875L24.545 8.29C24.6913 7.27875 23.9075 6.37375 22.8863 6.37375H4.455" stroke="white" stroke-width="1.5" stroke-linecap="round" stroke-linejoin="round"/>
<path d="M15.6572 10.9937H19.1235" stroke="white" stroke-width="1.5" stroke-linecap="round" stroke-linejoin="round"/>
</svg>
