<svg width="24" height="28" viewBox="0 0 24 28" fill="none" xmlns="http://www.w3.org/2000/svg">
<path fill-rule="evenodd" clip-rule="evenodd" d="M1.37603 16.2339V15.9602C1.41619 15.1503 1.67575 14.3656 2.12794 13.687C2.88063 12.8718 3.39588 11.8729 3.61964 10.795C3.61964 9.96188 3.61964 9.11688 3.69241 8.28378C4.06836 4.27302 8.0341 1.5 11.9513 1.5H12.0483C15.9656 1.5 19.9313 4.27302 20.3194 8.28378C20.3921 9.11688 20.3194 9.96188 20.38 10.795C20.6068 11.8754 21.1215 12.8774 21.8717 13.6989C22.3273 14.3715 22.5873 15.1533 22.6236 15.9602V16.222C22.6507 17.3101 22.276 18.371 21.5685 19.2092C20.6337 20.1893 19.3651 20.7991 18.003 20.923C14.0087 21.3515 9.97879 21.3515 5.98453 20.923C4.62393 20.7937 3.3572 20.1849 2.41901 19.2092C1.7225 18.3704 1.3528 17.3157 1.37603 16.2339Z" stroke="white" stroke-width="1.5" stroke-linecap="round" stroke-linejoin="round"/>
<path d="M8.94336 25.0647C9.56745 25.8481 10.4839 26.355 11.49 26.4734C12.496 26.5918 13.5086 26.3118 14.3038 25.6955C14.5483 25.5132 14.7684 25.3013 14.9587 25.0647" stroke="white" stroke-width="1.5" stroke-linecap="round" stroke-linejoin="round"/>
</svg>
